<?xml version="1.0" standalone="no"?>
<!DOCTYPE svg PUBLIC "-//W3C//DTD SVG 1.1//EN" "http://www.w3.org/Graphics/SVG/1.1/DTD/svg11.dtd">
<svg version="1.1" width="1200" height="774" onload="init(evt)" viewBox="0 0 1200 774" xmlns="http://www.w3.org/2000/svg" xmlns:xlink="http://www.w3.org/1999/xlink">
<style type="text/css">
	text { font-family:Verdana; font-size:12px; fill:rgb(0,0,0); }
	#search { opacity:0.1; cursor:pointer; }
	#search:hover, #search.show { opacity:1; }
	#subtitle { text-anchor:middle; font-color:rgb(160,160,160); }
	#title { text-anchor:middle; font-size:17px}
	#unzoom { cursor:pointer; }
	#frames > *:hover { stroke:black; stroke-width:0.5; cursor:pointer; }
	.hide { display:none; }
	.parent { opacity:0.5; }
</style>
<script type="text/ecmascript">
<![CDATA[
	"use strict";
	var details, searchbtn, unzoombtn, matchedtxt, svg, searching;
	function init(evt) {
		details = document.getElementById("details").firstChild;
		searchbtn = document.getElementById("search");
		unzoombtn = document.getElementById("unzoom");
		matchedtxt = document.getElementById("matched");
		svg = document.getElementsByTagName("svg")[0];
		searching = 0;
	}

	window.addEventListener("click", function(e) {
		var target = find_group(e.target);
		if (target) {
			if (target.nodeName == "a") {
				if (e.ctrlKey === false) return;
				e.preventDefault();
			}
			if (target.classList.contains("parent")) unzoom();
			zoom(target);
		}
		else if (e.target.id == "unzoom") unzoom();
		else if (e.target.id == "search") search_prompt();
	}, false)

	// mouse-over for info
	// show
	window.addEventListener("mouseover", function(e) {
		var target = find_group(e.target);
		if (target) details.nodeValue = "Function: " + g_to_text(target);
	}, false)

	// clear
	window.addEventListener("mouseout", function(e) {
		var target = find_group(e.target);
		if (target) details.nodeValue = ' ';
	}, false)

	// ctrl-F for search
	window.addEventListener("keydown",function (e) {
		if (e.keyCode === 114 || (e.ctrlKey && e.keyCode === 70)) {
			e.preventDefault();
			search_prompt();
		}
	}, false)

	// functions
	function find_child(node, selector) {
		var children = node.querySelectorAll(selector);
		if (children.length) return children[0];
		return;
	}
	function find_group(node) {
		var parent = node.parentElement;
		if (!parent) return;
		if (parent.id == "frames") return node;
		return find_group(parent);
	}
	function orig_save(e, attr, val) {
		if (e.attributes["_orig_" + attr] != undefined) return;
		if (e.attributes[attr] == undefined) return;
		if (val == undefined) val = e.attributes[attr].value;
		e.setAttribute("_orig_" + attr, val);
	}
	function orig_load(e, attr) {
		if (e.attributes["_orig_"+attr] == undefined) return;
		e.attributes[attr].value = e.attributes["_orig_" + attr].value;
		e.removeAttribute("_orig_"+attr);
	}
	function g_to_text(e) {
		var text = find_child(e, "title").firstChild.nodeValue;
		return (text)
	}
	function g_to_func(e) {
		var func = g_to_text(e);
		// if there's any manipulation we want to do to the function
		// name before it's searched, do it here before returning.
		return (func);
	}
	function update_text(e) {
		var r = find_child(e, "rect");
		var t = find_child(e, "text");
		var w = parseFloat(r.attributes.width.value) -3;
		var txt = find_child(e, "title").textContent.replace(/\([^(]*\)$/,"");
		t.attributes.x.value = parseFloat(r.attributes.x.value) + 3;

		// Smaller than this size won't fit anything
		if (w < 2 * 12 * 0.59) {
			t.textContent = "";
			return;
		}

		t.textContent = txt;
		// Fit in full text width
		if (/^ *$/.test(txt) || t.getSubStringLength(0, txt.length) < w)
			return;

		for (var x = txt.length - 2; x > 0; x--) {
			if (t.getSubStringLength(0, x + 2) <= w) {
				t.textContent = txt.substring(0, x) + "..";
				return;
			}
		}
		t.textContent = "";
	}

	// zoom
	function zoom_reset(e) {
		if (e.attributes != undefined) {
			orig_load(e, "x");
			orig_load(e, "width");
		}
		if (e.childNodes == undefined) return;
		for (var i = 0, c = e.childNodes; i < c.length; i++) {
			zoom_reset(c[i]);
		}
	}
	function zoom_child(e, x, ratio) {
		if (e.attributes != undefined) {
			if (e.attributes.x != undefined) {
				orig_save(e, "x");
				e.attributes.x.value = (parseFloat(e.attributes.x.value) - x - 10) * ratio + 10;
				if (e.tagName == "text")
					e.attributes.x.value = find_child(e.parentNode, "rect[x]").attributes.x.value + 3;
			}
			if (e.attributes.width != undefined) {
				orig_save(e, "width");
				e.attributes.width.value = parseFloat(e.attributes.width.value) * ratio;
			}
		}

		if (e.childNodes == undefined) return;
		for (var i = 0, c = e.childNodes; i < c.length; i++) {
			zoom_child(c[i], x - 10, ratio);
		}
	}
	function zoom_parent(e) {
		if (e.attributes) {
			if (e.attributes.x != undefined) {
				orig_save(e, "x");
				e.attributes.x.value = 10;
			}
			if (e.attributes.width != undefined) {
				orig_save(e, "width");
				e.attributes.width.value = parseInt(svg.width.baseVal.value) - (10 * 2);
			}
		}
		if (e.childNodes == undefined) return;
		for (var i = 0, c = e.childNodes; i < c.length; i++) {
			zoom_parent(c[i]);
		}
	}
	function zoom(node) {
		var attr = find_child(node, "rect").attributes;
		var width = parseFloat(attr.width.value);
		var xmin = parseFloat(attr.x.value);
		var xmax = parseFloat(xmin + width);
		var ymin = parseFloat(attr.y.value);
		var ratio = (svg.width.baseVal.value - 2 * 10) / width;

		// XXX: Workaround for JavaScript float issues (fix me)
		var fudge = 0.0001;

		unzoombtn.classList.remove("hide");

		var el = document.getElementById("frames").children;
		for (var i = 0; i < el.length; i++) {
			var e = el[i];
			var a = find_child(e, "rect").attributes;
			var ex = parseFloat(a.x.value);
			var ew = parseFloat(a.width.value);
			var upstack;
			// Is it an ancestor
			if (0 == 0) {
				upstack = parseFloat(a.y.value) > ymin;
			} else {
				upstack = parseFloat(a.y.value) < ymin;
			}
			if (upstack) {
				// Direct ancestor
				if (ex <= xmin && (ex+ew+fudge) >= xmax) {
					e.classList.add("parent");
					zoom_parent(e);
					update_text(e);
				}
				// not in current path
				else
					e.classList.add("hide");
			}
			// Children maybe
			else {
				// no common path
				if (ex < xmin || ex + fudge >= xmax) {
					e.classList.add("hide");
				}
				else {
					zoom_child(e, xmin, ratio);
					update_text(e);
				}
			}
		}
	}
	function unzoom() {
		unzoombtn.classList.add("hide");
		var el = document.getElementById("frames").children;
		for(var i = 0; i < el.length; i++) {
			el[i].classList.remove("parent");
			el[i].classList.remove("hide");
			zoom_reset(el[i]);
			update_text(el[i]);
		}
	}

	// search
	function reset_search() {
		var el = document.querySelectorAll("#frames rect");
		for (var i = 0; i < el.length; i++) {
			orig_load(el[i], "fill")
		}
	}
	function search_prompt() {
		if (!searching) {
			var term = prompt("Enter a search term (regexp " +
			    "allowed, eg: ^ext4_)", "");
			if (term != null) {
				search(term)
			}
		} else {
			reset_search();
			searching = 0;
			searchbtn.classList.remove("show");
			searchbtn.firstChild.nodeValue = "Search"
			matchedtxt.classList.add("hide");
			matchedtxt.firstChild.nodeValue = ""
		}
	}
	function search(term) {
		var re = new RegExp(term);
		var el = document.getElementById("frames").children;
		var matches = new Object();
		var maxwidth = 0;
		for (var i = 0; i < el.length; i++) {
			var e = el[i];
			var func = g_to_func(e);
			var rect = find_child(e, "rect");
			if (func == null || rect == null)
				continue;

			// Save max width. Only works as we have a root frame
			var w = parseFloat(rect.attributes.width.value);
			if (w > maxwidth)
				maxwidth = w;

			if (func.match(re)) {
				// highlight
				var x = parseFloat(rect.attributes.x.value);
				orig_save(rect, "fill");
				rect.attributes.fill.value = "rgb(230,0,230)";

				// remember matches
				if (matches[x] == undefined) {
					matches[x] = w;
				} else {
					if (w > matches[x]) {
						// overwrite with parent
						matches[x] = w;
					}
				}
				searching = 1;
			}
		}
		if (!searching)
			return;

		searchbtn.classList.add("show");
		searchbtn.firstChild.nodeValue = "Reset Search";

		// calculate percent matched, excluding vertical overlap
		var count = 0;
		var lastx = -1;
		var lastw = 0;
		var keys = Array();
		for (k in matches) {
			if (matches.hasOwnProperty(k))
				keys.push(k);
		}
		// sort the matched frames by their x location
		// ascending, then width descending
		keys.sort(function(a, b){
			return a - b;
		});
		// Step through frames saving only the biggest bottom-up frames
		// thanks to the sort order. This relies on the tree property
		// where children are always smaller than their parents.
		var fudge = 0.0001;	// JavaScript floating point
		for (var k in keys) {
			var x = parseFloat(keys[k]);
			var w = matches[keys[k]];
			if (x >= lastx + lastw - fudge) {
				count += w;
				lastx = x;
				lastw = w;
			}
		}
		// display matched percent
		matchedtxt.classList.remove("hide");
		var pct = 100 * count / maxwidth;
		if (pct != 100) pct = pct.toFixed(1)
		matchedtxt.firstChild.nodeValue = "Matched: " + pct + "%";
	}
]]>
</script>
<rect x="0" y="0" width="100%" height="100%" fill="rgb(240,240,220)"/>
<text id="title" x="600" y="24">Flame Graph</text>
<text id="details" x="10" y="757"> </text>
<text id="unzoom" x="10" y="24" class="hide">Reset Zoom</text>
<text id="search" x="1090" y="24">Search</text>
<text id="matched" x="1090" y="757"> </text>
<g id="frames">
<g>
<title>all (20 samples, 100.00%)</title><rect x="10.0" y="723.0" width="1180.0" height="15" fill="#fa7b7b" rx="2" ry="2"/>
<text x="13.0" y="734.0">all</text>
</g>
<g>
<title>com/linecorp/decaton/processor/runtime/ProcessorSubscription.run (6 samples, 30.00%)</title><rect x="10.0" y="707.0" width="354.0" height="15" fill="#5bec5b" rx="2" ry="2"/>
<text x="13.0" y="718.0">com/linecorp/decaton/processor/runtime/Processor..</text>
</g>
<g>
<title>com/linecorp/decaton/processor/runtime/ProcessorSubscription.pollOnce (6 samples, 30.00%)</title><rect x="10.0" y="691.0" width="354.0" height="15" fill="#67f867" rx="2" ry="2"/>
<text x="13.0" y="702.0">com/linecorp/decaton/processor/runtime/Processor..</text>
</g>
<g>
<title>java/lang/Iterable.forEach (1 samples, 5.00%)</title><rect x="10.0" y="675.0" width="59.0" height="15" fill="#67f867" rx="2" ry="2"/>
<text x="13.0" y="686.0">java/l..</text>
</g>
<g>
<title>com/linecorp/decaton/processor/runtime/ProcessorSubscription$$Lambda$263/102544427.accept (1 samples, 5.00%)</title><rect x="10.0" y="659.0" width="59.0" height="15" fill="#6bfc6b" rx="2" ry="2"/>
<text x="13.0" y="670.0">com/li..</text>
</g>
<g>
<title>com/linecorp/decaton/processor/runtime/ProcessorSubscription.lambda$pollOnce$68 (1 samples, 5.00%)</title><rect x="10.0" y="643.0" width="59.0" height="15" fill="#55e655" rx="2" ry="2"/>
<text x="13.0" y="654.0">com/li..</text>
</g>
<g>
<title>com/linecorp/decaton/processor/runtime/PartitionContexts.get (1 samples, 5.00%)</title><rect x="10.0" y="627.0" width="59.0" height="15" fill="#5aeb5a" rx="2" ry="2"/>
<text x="13.0" y="638.0">com/li..</text>
</g>
<g>
<title>java/util/HashMap.get (1 samples, 5.00%)</title><rect x="10.0" y="611.0" width="59.0" height="15" fill="#67f867" rx="2" ry="2"/>
<text x="13.0" y="622.0">java/u..</text>
</g>
<g>
<title>java/util/HashMap.getNode (1 samples, 5.00%)</title><rect x="10.0" y="595.0" width="59.0" height="15" fill="#58e958" rx="2" ry="2"/>
<text x="13.0" y="606.0">java/u..</text>
</g>
<g>
<title>org/apache/kafka/clients/consumer/KafkaConsumer.poll (5 samples, 25.00%)</title><rect x="69.0" y="675.0" width="295.0" height="15" fill="#60f160" rx="2" ry="2"/>
<text x="72.0" y="686.0">org/apache/kafka/clients/consumer/KafkaC..</text>
</g>
<g>
<title>org/apache/kafka/clients/consumer/KafkaConsumer.poll (5 samples, 25.00%)</title><rect x="69.0" y="659.0" width="295.0" height="15" fill="#5eef5e" rx="2" ry="2"/>
<text x="72.0" y="670.0">org/apache/kafka/clients/consumer/KafkaC..</text>
</g>
<g>
<title>org/apache/kafka/clients/consumer/KafkaConsumer.pollForFetches (4 samples, 20.00%)</title><rect x="69.0" y="643.0" width="236.0" height="15" fill="#62f362" rx="2" ry="2"/>
<text x="72.0" y="654.0">org/apache/kafka/clients/consum..</text>
</g>
<g>
<title>org/apache/kafka/clients/consumer/internals/ConsumerNetworkClient.poll (4 samples, 20.00%)</title><rect x="69.0" y="627.0" width="236.0" height="15" fill="#5aeb5a" rx="2" ry="2"/>
<text x="72.0" y="638.0">org/apache/kafka/clients/consum..</text>
</g>
<g>
<title>org/apache/kafka/clients/consumer/internals/ConsumerNetworkClient.poll (4 samples, 20.00%)</title><rect x="69.0" y="611.0" width="236.0" height="15" fill="#5ff05f" rx="2" ry="2"/>
<text x="72.0" y="622.0">org/apache/kafka/clients/consum..</text>
</g>
<g>
<title>org/apache/kafka/clients/NetworkClient.poll (3 samples, 15.00%)</title><rect x="69.0" y="595.0" width="177.0" height="15" fill="#6cfd6c" rx="2" ry="2"/>
<text x="72.0" y="606.0">org/apache/kafka/client..</text>
</g>
<g>
<title>org/apache/kafka/clients/NetworkClient.handleCompletedReceives (1 samples, 5.00%)</title><rect x="69.0" y="579.0" width="59.0" height="15" fill="#6bfc6b" rx="2" ry="2"/>
<text x="72.0" y="590.0">org/ap..</text>
</g>
<g>
<title>org/apache/kafka/clients/InFlightRequests.completeNext (1 samples, 5.00%)</title><rect x="69.0" y="563.0" width="59.0" height="15" fill="#63f463" rx="2" ry="2"/>
<text x="72.0" y="574.0">org/ap..</text>
</g>
<g>
<title>org/apache/kafka/clients/InFlightRequests.requestQueue (1 samples, 5.00%)</title><rect x="69.0" y="547.0" width="59.0" height="15" fill="#65f665" rx="2" ry="2"/>
<text x="72.0" y="558.0">org/ap..</text>
</g>
<g>
<title>org/apache/kafka/common/network/Selector.poll (2 samples, 10.00%)</title><rect x="128.0" y="579.0" width="118.0" height="15" fill="#54e554" rx="2" ry="2"/>
<text x="131.0" y="590.0">org/apache/kaf..</text>
</g>
<g>
<title>org/apache/kafka/common/network/Selector.pollSelectionKeys (1 samples, 5.00%)</title><rect x="128.0" y="563.0" width="59.0" height="15" fill="#62f362" rx="2" ry="2"/>
<text x="131.0" y="574.0">org/ap..</text>
</g>
<g>
<title>org/apache/kafka/common/network/Selector.attemptRead (1 samples, 5.00%)</title><rect x="128.0" y="547.0" width="59.0" height="15" fill="#50e150" rx="2" ry="2"/>
<text x="131.0" y="558.0">org/ap..</text>
</g>
<g>
<title>org/apache/kafka/common/network/KafkaChannel.read (1 samples, 5.00%)</title><rect x="128.0" y="531.0" width="59.0" height="15" fill="#57e857" rx="2" ry="2"/>
<text x="131.0" y="542.0">org/ap..</text>
</g>
<g>
<title>org/apache/kafka/common/network/KafkaChannel.receive (1 samples, 5.00%)</title><rect x="128.0" y="515.0" width="59.0" height="15" fill="#54e554" rx="2" ry="2"/>
<text x="131.0" y="526.0">org/ap..</text>
</g>
<g>
<title>org/apache/kafka/common/network/NetworkReceive.readFrom (1 samples, 5.00%)</title><rect x="128.0" y="499.0" width="59.0" height="15" fill="#68f968" rx="2" ry="2"/>
<text x="131.0" y="510.0">org/ap..</text>
</g>
<g>
<title>org/apache/kafka/common/network/PlaintextTransportLayer.read (1 samples, 5.00%)</title><rect x="128.0" y="483.0" width="59.0" height="15" fill="#54e554" rx="2" ry="2"/>
<text x="131.0" y="494.0">org/ap..</text>
</g>
<g>
<title>sun/nio/ch/SocketChannelImpl.read (1 samples, 5.00%)</title><rect x="128.0" y="467.0" width="59.0" height="15" fill="#5ced5c" rx="2" ry="2"/>
<text x="131.0" y="478.0">sun/ni..</text>
</g>
<g>
<title>sun/nio/ch/IOUtil.read (1 samples, 5.00%)</title><rect x="128.0" y="451.0" width="59.0" height="15" fill="#53e453" rx="2" ry="2"/>
<text x="131.0" y="462.0">sun/ni..</text>
</g>
<g>
<title>sun/nio/ch/IOUtil.readIntoNativeBuffer (1 samples, 5.00%)</title><rect x="128.0" y="435.0" width="59.0" height="15" fill="#53e453" rx="2" ry="2"/>
<text x="131.0" y="446.0">sun/ni..</text>
</g>
<g>
<title>sun/nio/ch/SocketDispatcher.read (1 samples, 5.00%)</title><rect x="128.0" y="419.0" width="59.0" height="15" fill="#6dfe6d" rx="2" ry="2"/>
<text x="131.0" y="430.0">sun/ni..</text>
</g>
<g>
<title>sun/nio/ch/FileDispatcherImpl.read0 (1 samples, 5.00%)</title><rect x="128.0" y="403.0" width="59.0" height="15" fill="#56e756" rx="2" ry="2"/>
<text x="131.0" y="414.0">sun/ni..</text>
</g>
<g>
<title>__read (1 samples, 5.00%)</title><rect x="128.0" y="387.0" width="59.0" height="15" fill="#f06e6e" rx="2" ry="2"/>
<text x="131.0" y="398.0">__read</text>
</g>
<g>
<title>system_call_fastpath (1 samples, 5.00%)</title><rect x="128.0" y="371.0" width="59.0" height="15" fill="#fa9600" rx="2" ry="2"/>
<text x="131.0" y="382.0">system..</text>
</g>
<g>
<title>sys_read (1 samples, 5.00%)</title><rect x="128.0" y="355.0" width="59.0" height="15" fill="#f38f00" rx="2" ry="2"/>
<text x="131.0" y="366.0">sys_read</text>
</g>
<g>
<title>vfs_read (1 samples, 5.00%)</title><rect x="128.0" y="339.0" width="59.0" height="15" fill="#e98500" rx="2" ry="2"/>
<text x="131.0" y="350.0">vfs_read</text>
</g>
<g>
<title>do_sync_read (1 samples, 5.00%)</title><rect x="128.0" y="323.0" width="59.0" height="15" fill="#f49000" rx="2" ry="2"/>
<text x="131.0" y="334.0">do_syn..</text>
</g>
<g>
<title>sock_aio_read (1 samples, 5.00%)</title><rect x="128.0" y="307.0" width="59.0" height="15" fill="#f08c00" rx="2" ry="2"/>
<text x="131.0" y="318.0">sock_a..</text>
</g>
<g>
<title>sock_aio_read.part.9 (1 samples, 5.00%)</title><rect x="128.0" y="291.0" width="59.0" height="15" fill="#ef8b00" rx="2" ry="2"/>
<text x="131.0" y="302.0">sock_a..</text>
</g>
<g>
<title>inet_recvmsg (1 samples, 5.00%)</title><rect x="128.0" y="275.0" width="59.0" height="15" fill="#fe9a00" rx="2" ry="2"/>
<text x="131.0" y="286.0">inet_r..</text>
</g>
<g>
<title>tcp_recvmsg (1 samples, 5.00%)</title><rect x="128.0" y="259.0" width="59.0" height="15" fill="#e98500" rx="2" ry="2"/>
<text x="131.0" y="270.0">tcp_re..</text>
</g>
<g>
<title>tcp_cleanup_rbuf (1 samples, 5.00%)</title><rect x="128.0" y="243.0" width="59.0" height="15" fill="#f89400" rx="2" ry="2"/>
<text x="131.0" y="254.0">tcp_cl..</text>
</g>
<g>
<title>tcp_send_ack (1 samples, 5.00%)</title><rect x="128.0" y="227.0" width="59.0" height="15" fill="#f08c00" rx="2" ry="2"/>
<text x="131.0" y="238.0">tcp_se..</text>
</g>
<g>
<title>tcp_transmit_skb (1 samples, 5.00%)</title><rect x="128.0" y="211.0" width="59.0" height="15" fill="#f89400" rx="2" ry="2"/>
<text x="131.0" y="222.0">tcp_tr..</text>
</g>
<g>
<title>ip_queue_xmit (1 samples, 5.00%)</title><rect x="128.0" y="195.0" width="59.0" height="15" fill="#ed8900" rx="2" ry="2"/>
<text x="131.0" y="206.0">ip_que..</text>
</g>
<g>
<title>ip_local_out_sk (1 samples, 5.00%)</title><rect x="128.0" y="179.0" width="59.0" height="15" fill="#fb9700" rx="2" ry="2"/>
<text x="131.0" y="190.0">ip_loc..</text>
</g>
<g>
<title>ip_output (1 samples, 5.00%)</title><rect x="128.0" y="163.0" width="59.0" height="15" fill="#e98500" rx="2" ry="2"/>
<text x="131.0" y="174.0">ip_out..</text>
</g>
<g>
<title>ip_finish_output (1 samples, 5.00%)</title><rect x="128.0" y="147.0" width="59.0" height="15" fill="#eb8700" rx="2" ry="2"/>
<text x="131.0" y="158.0">ip_fin..</text>
</g>
<g>
<title>local_bh_enable (1 samples, 5.00%)</title><rect x="128.0" y="131.0" width="59.0" height="15" fill="#f99500" rx="2" ry="2"/>
<text x="131.0" y="142.0">local_..</text>
</g>
<g>
<title>__local_bh_enable_ip (1 samples, 5.00%)</title><rect x="128.0" y="115.0" width="59.0" height="15" fill="#fc9800" rx="2" ry="2"/>
<text x="131.0" y="126.0">__loca..</text>
</g>
<g>
<title>do_softirq (1 samples, 5.00%)</title><rect x="128.0" y="99.0" width="59.0" height="15" fill="#e37f00" rx="2" ry="2"/>
<text x="131.0" y="110.0">do_sof..</text>
</g>
<g>
<title>call_softirq (1 samples, 5.00%)</title><rect x="128.0" y="83.0" width="59.0" height="15" fill="#fd9900" rx="2" ry="2"/>
<text x="131.0" y="94.0">call_s..</text>
</g>
<g>
<title>__do_softirq (1 samples, 5.00%)</title><rect x="128.0" y="67.0" width="59.0" height="15" fill="#f08c00" rx="2" ry="2"/>
<text x="131.0" y="78.0">__do_s..</text>
</g>
<g>
<title>net_rx_action (1 samples, 5.00%)</title><rect x="128.0" y="51.0" width="59.0" height="15" fill="#e37f00" rx="2" ry="2"/>
<text x="131.0" y="62.0">net_rx..</text>
</g>
<g>
<title>process_backlog (1 samples, 5.00%)</title><rect x="128.0" y="35.0" width="59.0" height="15" fill="#e68200" rx="2" ry="2"/>
<text x="131.0" y="46.0">proces..</text>
</g>
<g>
<title>org/apache/kafka/common/network/Selector.select (1 samples, 5.00%)</title><rect x="187.0" y="563.0" width="59.0" height="15" fill="#63f463" rx="2" ry="2"/>
<text x="190.0" y="574.0">org/ap..</text>
</g>
<g>
<title>sun/nio/ch/SelectorImpl.select (1 samples, 5.00%)</title><rect x="187.0" y="547.0" width="59.0" height="15" fill="#6afb6a" rx="2" ry="2"/>
<text x="190.0" y="558.0">sun/ni..</text>
</g>
<g>
<title>sun/nio/ch/SelectorImpl.lockAndDoSelect (1 samples, 5.00%)</title><rect x="187.0" y="531.0" width="59.0" height="15" fill="#5aeb5a" rx="2" ry="2"/>
<text x="190.0" y="542.0">sun/ni..</text>
</g>
<g>
<title>sun/nio/ch/EPollSelectorImpl.doSelect (1 samples, 5.00%)</title><rect x="187.0" y="515.0" width="59.0" height="15" fill="#51e251" rx="2" ry="2"/>
<text x="190.0" y="526.0">sun/ni..</text>
</g>
<g>
<title>sun/nio/ch/EPollArrayWrapper.poll (1 samples, 5.00%)</title><rect x="187.0" y="499.0" width="59.0" height="15" fill="#50e150" rx="2" ry="2"/>
<text x="190.0" y="510.0">sun/ni..</text>
</g>
<g>
<title>sun/nio/ch/EPollArrayWrapper.updateRegistrations (1 samples, 5.00%)</title><rect x="187.0" y="483.0" width="59.0" height="15" fill="#5dee5d" rx="2" ry="2"/>
<text x="190.0" y="494.0">sun/ni..</text>
</g>
<g>
<title>sun/nio/ch/EPollArrayWrapper.epollCtl (1 samples, 5.00%)</title><rect x="187.0" y="467.0" width="59.0" height="15" fill="#51e251" rx="2" ry="2"/>
<text x="190.0" y="478.0">sun/ni..</text>
</g>
<g>
<title>__GI_epoll_ctl (1 samples, 5.00%)</title><rect x="187.0" y="451.0" width="59.0" height="15" fill="#e86363" rx="2" ry="2"/>
<text x="190.0" y="462.0">__GI_e..</text>
</g>
<g>
<title>system_call_fastpath (1 samples, 5.00%)</title><rect x="187.0" y="435.0" width="59.0" height="15" fill="#fe9a00" rx="2" ry="2"/>
<text x="190.0" y="446.0">system..</text>
</g>
<g>
<title>sys_epoll_ctl (1 samples, 5.00%)</title><rect x="187.0" y="419.0" width="59.0" height="15" fill="#fc9800" rx="2" ry="2"/>
<text x="190.0" y="430.0">sys_ep..</text>
</g>
<g>
<title>__check_object_size (1 samples, 5.00%)</title><rect x="187.0" y="403.0" width="59.0" height="15" fill="#fa9600" rx="2" ry="2"/>
<text x="190.0" y="414.0">__chec..</text>
</g>
<g>
<title>check_stack_object (1 samples, 5.00%)</title><rect x="187.0" y="387.0" width="59.0" height="15" fill="#e88400" rx="2" ry="2"/>
<text x="190.0" y="398.0">check_..</text>
</g>
<g>
<title>org/apache/kafka/clients/consumer/KafkaConsumer$$Lambda$260/626540298.shouldBlock (1 samples, 5.00%)</title><rect x="246.0" y="595.0" width="59.0" height="15" fill="#60f160" rx="2" ry="2"/>
<text x="249.0" y="606.0">org/ap..</text>
</g>
<g>
<title>org/apache/kafka/clients/consumer/KafkaConsumer.lambda$pollForFetches$1 (1 samples, 5.00%)</title><rect x="246.0" y="579.0" width="59.0" height="15" fill="#5bec5b" rx="2" ry="2"/>
<text x="249.0" y="590.0">org/ap..</text>
</g>
<g>
<title>org/apache/kafka/clients/consumer/internals/Fetcher.hasAvailableFetches (1 samples, 5.00%)</title><rect x="246.0" y="563.0" width="59.0" height="15" fill="#66f766" rx="2" ry="2"/>
<text x="249.0" y="574.0">org/ap..</text>
</g>
<g>
<title>java/util/stream/ReferencePipeline.anyMatch (1 samples, 5.00%)</title><rect x="246.0" y="547.0" width="59.0" height="15" fill="#5ff05f" rx="2" ry="2"/>
<text x="249.0" y="558.0">java/u..</text>
</g>
<g>
<title>java/util/stream/AbstractPipeline.evaluate (1 samples, 5.00%)</title><rect x="246.0" y="531.0" width="59.0" height="15" fill="#64f564" rx="2" ry="2"/>
<text x="249.0" y="542.0">java/u..</text>
</g>
<g>
<title>java/util/stream/MatchOps$MatchOp.evaluateSequential (1 samples, 5.00%)</title><rect x="246.0" y="515.0" width="59.0" height="15" fill="#5ff05f" rx="2" ry="2"/>
<text x="249.0" y="526.0">java/u..</text>
</g>
<g>
<title>java/util/stream/MatchOps$MatchOp.evaluateSequential (1 samples, 5.00%)</title><rect x="246.0" y="499.0" width="59.0" height="15" fill="#51e251" rx="2" ry="2"/>
<text x="249.0" y="510.0">java/u..</text>
</g>
<g>
<title>java/util/stream/AbstractPipeline.wrapAndCopyInto (1 samples, 5.00%)</title><rect x="246.0" y="483.0" width="59.0" height="15" fill="#5dee5d" rx="2" ry="2"/>
<text x="249.0" y="494.0">java/u..</text>
</g>
<g>
<title>java/util/stream/AbstractPipeline.copyInto (1 samples, 5.00%)</title><rect x="246.0" y="467.0" width="59.0" height="15" fill="#6bfc6b" rx="2" ry="2"/>
<text x="249.0" y="478.0">java/u..</text>
</g>
<g>
<title>java/util/stream/AbstractPipeline.copyIntoWithCancel (1 samples, 5.00%)</title><rect x="246.0" y="451.0" width="59.0" height="15" fill="#6bfc6b" rx="2" ry="2"/>
<text x="249.0" y="462.0">java/u..</text>
</g>
<g>
<title>java/util/stream/ReferencePipeline.forEachWithCancel (1 samples, 5.00%)</title><rect x="246.0" y="435.0" width="59.0" height="15" fill="#65f665" rx="2" ry="2"/>
<text x="249.0" y="446.0">java/u..</text>
</g>
<g>
<title>java/util/concurrent/ConcurrentLinkedQueue$CLQSpliterator.tryAdvance (1 samples, 5.00%)</title><rect x="246.0" y="419.0" width="59.0" height="15" fill="#58e958" rx="2" ry="2"/>
<text x="249.0" y="430.0">java/u..</text>
</g>
<g>
<title>org/apache/kafka/clients/consumer/KafkaConsumer.updateAssignmentMetadataIfNeeded (1 samples, 5.00%)</title><rect x="305.0" y="643.0" width="59.0" height="15" fill="#66f766" rx="2" ry="2"/>
<text x="308.0" y="654.0">org/ap..</text>
</g>
<g>
<title>org/apache/kafka/clients/consumer/KafkaConsumer.updateFetchPositions (1 samples, 5.00%)</title><rect x="305.0" y="627.0" width="59.0" height="15" fill="#63f463" rx="2" ry="2"/>
<text x="308.0" y="638.0">org/ap..</text>
</g>
<g>
<title>org/apache/kafka/clients/consumer/internals/SubscriptionState.hasAllFetchPositions (1 samples, 5.00%)</title><rect x="305.0" y="611.0" width="59.0" height="15" fill="#5aeb5a" rx="2" ry="2"/>
<text x="308.0" y="622.0">org/ap..</text>
</g>
<g>
<title>java/util/stream/ReferencePipeline.allMatch (1 samples, 5.00%)</title><rect x="305.0" y="595.0" width="59.0" height="15" fill="#64f564" rx="2" ry="2"/>
<text x="308.0" y="606.0">java/u..</text>
</g>
<g>
<title>java/util/stream/MatchOps.makeRef (1 samples, 5.00%)</title><rect x="305.0" y="579.0" width="59.0" height="15" fill="#54e554" rx="2" ry="2"/>
<text x="308.0" y="590.0">java/u..</text>
</g>
<g>
<title>java/lang/Thread.run (8 samples, 40.00%)</title><rect x="364.0" y="707.0" width="472.0" height="15" fill="#5dee5d" rx="2" ry="2"/>
<text x="367.0" y="718.0">java/lang/Thread.run</text>
</g>
<g>
<title>java/util/concurrent/ThreadPoolExecutor$Worker.run (8 samples, 40.00%)</title><rect x="364.0" y="691.0" width="472.0" height="15" fill="#6afb6a" rx="2" ry="2"/>
<text x="367.0" y="702.0">java/util/concurrent/ThreadPoolExecutor$Worker.run</text>
</g>
<g>
<title>java/util/concurrent/ThreadPoolExecutor.runWorker (8 samples, 40.00%)</title><rect x="364.0" y="675.0" width="472.0" height="15" fill="#68f968" rx="2" ry="2"/>
<text x="367.0" y="686.0">java/util/concurrent/ThreadPoolExecutor.runWorker</text>
</g>
<g>
<title>com/linecorp/decaton/processor/runtime/ProcessorUnit$$Lambda$277/352496009.run (8 samples, 40.00%)</title><rect x="364.0" y="659.0" width="472.0" height="15" fill="#59ea59" rx="2" ry="2"/>
<text x="367.0" y="670.0">com/linecorp/decaton/processor/runtime/ProcessorUnit$$Lambda$277/..</text>
</g>
<g>
<title>com/linecorp/decaton/processor/runtime/ProcessorUnit.lambda$putTask$57 (8 samples, 40.00%)</title><rect x="364.0" y="643.0" width="472.0" height="15" fill="#56e756" rx="2" ry="2"/>
<text x="367.0" y="654.0">com/linecorp/decaton/processor/runtime/ProcessorUnit.lambda$putTa..</text>
</g>
<g>
<title>com/linecorp/decaton/processor/runtime/ProcessorUnit.processTask (8 samples, 40.00%)</title><rect x="364.0" y="627.0" width="472.0" height="15" fill="#6afb6a" rx="2" ry="2"/>
<text x="367.0" y="638.0">com/linecorp/decaton/processor/runtime/ProcessorUnit.processTask</text>
</g>
<g>
<title>com/linecorp/decaton/processor/runtime/ProcessPipeline.scheduleThenProcess (8 samples, 40.00%)</title><rect x="364.0" y="611.0" width="472.0" height="15" fill="#5aeb5a" rx="2" ry="2"/>
<text x="367.0" y="622.0">com/linecorp/decaton/processor/runtime/ProcessPipeline.scheduleTh..</text>
</g>
<g>
<title>com/linecorp/decaton/processor/runtime/ProcessPipeline.extract (2 samples, 10.00%)</title><rect x="364.0" y="595.0" width="118.0" height="15" fill="#64f564" rx="2" ry="2"/>
<text x="367.0" y="606.0">com/linecorp/d..</text>
</g>
<g>
<title>com/linecorp/decaton/benchmark/DecatonRunner$$Lambda$41/634540230.extract (2 samples, 10.00%)</title><rect x="364.0" y="579.0" width="118.0" height="15" fill="#6cfd6c" rx="2" ry="2"/>
<text x="367.0" y="590.0">com/linecorp/d..</text>
</g>
<g>
<title>com/linecorp/decaton/benchmark/DecatonRunner.lambda$init$4 (2 samples, 10.00%)</title><rect x="364.0" y="563.0" width="118.0" height="15" fill="#61f261" rx="2" ry="2"/>
<text x="367.0" y="574.0">com/linecorp/d..</text>
</g>
<g>
<title>com/linecorp/decaton/benchmark/Task$KafkaDeserializer.deserialize (2 samples, 10.00%)</title><rect x="364.0" y="547.0" width="118.0" height="15" fill="#63f463" rx="2" ry="2"/>
<text x="367.0" y="558.0">com/linecorp/d..</text>
</g>
<g>
<title>com/linecorp/decaton/benchmark/Task$KafkaDeserializer.deserialize (2 samples, 10.00%)</title><rect x="364.0" y="531.0" width="118.0" height="15" fill="#69fa69" rx="2" ry="2"/>
<text x="367.0" y="542.0">com/linecorp/d..</text>
</g>
<g>
<title>com/fasterxml/jackson/databind/ObjectMapper.readValue (2 samples, 10.00%)</title><rect x="364.0" y="515.0" width="118.0" height="15" fill="#5dee5d" rx="2" ry="2"/>
<text x="367.0" y="526.0">com/fasterxml/..</text>
</g>
<g>
<title>com/fasterxml/jackson/core/JsonFactory.createParser (1 samples, 5.00%)</title><rect x="364.0" y="499.0" width="59.0" height="15" fill="#6bfc6b" rx="2" ry="2"/>
<text x="367.0" y="510.0">com/fa..</text>
</g>
<g>
<title>com/fasterxml/jackson/databind/ObjectMapper._readMapAndClose (1 samples, 5.00%)</title><rect x="423.0" y="499.0" width="59.0" height="15" fill="#5bec5b" rx="2" ry="2"/>
<text x="426.0" y="510.0">com/fa..</text>
</g>
<g>
<title>com/fasterxml/jackson/databind/deser/BeanDeserializer.deserialize (1 samples, 5.00%)</title><rect x="423.0" y="483.0" width="59.0" height="15" fill="#68f968" rx="2" ry="2"/>
<text x="426.0" y="494.0">com/fa..</text>
</g>
<g>
<title>com/fasterxml/jackson/databind/deser/BeanDeserializer.deserializeFromObject (1 samples, 5.00%)</title><rect x="423.0" y="467.0" width="59.0" height="15" fill="#64f564" rx="2" ry="2"/>
<text x="426.0" y="478.0">com/fa..</text>
</g>
<g>
<title>com/fasterxml/jackson/databind/deser/BeanDeserializerBase.deserializeFromObjectUsingNonDefault (1 samples, 5.00%)</title><rect x="423.0" y="451.0" width="59.0" height="15" fill="#6bfc6b" rx="2" ry="2"/>
<text x="426.0" y="462.0">com/fa..</text>
</g>
<g>
<title>com/fasterxml/jackson/databind/deser/BeanDeserializer._deserializeUsingPropertyBased (1 samples, 5.00%)</title><rect x="423.0" y="435.0" width="59.0" height="15" fill="#5eef5e" rx="2" ry="2"/>
<text x="426.0" y="446.0">com/fa..</text>
</g>
<g>
<title>com/fasterxml/jackson/databind/deser/impl/PropertyBasedCreator.build (1 samples, 5.00%)</title><rect x="423.0" y="419.0" width="59.0" height="15" fill="#56e756" rx="2" ry="2"/>
<text x="426.0" y="430.0">com/fa..</text>
</g>
<g>
<title>com/fasterxml/jackson/databind/deser/ValueInstantiator.createFromObjectWith (1 samples, 5.00%)</title><rect x="423.0" y="403.0" width="59.0" height="15" fill="#6cfd6c" rx="2" ry="2"/>
<text x="426.0" y="414.0">com/fa..</text>
</g>
<g>
<title>com/fasterxml/jackson/databind/deser/std/StdValueInstantiator.createFromObjectWith (1 samples, 5.00%)</title><rect x="423.0" y="387.0" width="59.0" height="15" fill="#6bfc6b" rx="2" ry="2"/>
<text x="426.0" y="398.0">com/fa..</text>
</g>
<g>
<title>com/fasterxml/jackson/databind/introspect/AnnotatedConstructor.call (1 samples, 5.00%)</title><rect x="423.0" y="371.0" width="59.0" height="15" fill="#54e554" rx="2" ry="2"/>
<text x="426.0" y="382.0">com/fa..</text>
</g>
<g>
<title>java/lang/reflect/Constructor.newInstance (1 samples, 5.00%)</title><rect x="423.0" y="355.0" width="59.0" height="15" fill="#6afb6a" rx="2" ry="2"/>
<text x="426.0" y="366.0">java/l..</text>
</g>
<g>
<title>com/fasterxml/jackson/core/json/UTF8StreamJsonParser.nextToken (1 samples, 5.00%)</title><rect x="423.0" y="339.0" width="59.0" height="15" fill="#63f463" rx="2" ry="2"/>
<text x="426.0" y="350.0">com/fa..</text>
</g>
<g>
<title>com/linecorp/decaton/processor/runtime/ProcessPipeline.process (6 samples, 30.00%)</title><rect x="482.0" y="595.0" width="354.0" height="15" fill="#5ced5c" rx="2" ry="2"/>
<text x="485.0" y="606.0">com/linecorp/decaton/processor/runtime/ProcessPi..</text>
</g>
<g>
<title>com/linecorp/decaton/processor/runtime/LoggingContext.close (1 samples, 5.00%)</title><rect x="482.0" y="579.0" width="59.0" height="15" fill="#62f362" rx="2" ry="2"/>
<text x="485.0" y="590.0">com/li..</text>
</g>
<g>
<title>org/slf4j/MDC.remove (1 samples, 5.00%)</title><rect x="482.0" y="563.0" width="59.0" height="15" fill="#58e958" rx="2" ry="2"/>
<text x="485.0" y="574.0">org/sl..</text>
</g>
<g>
<title>ch/qos/logback/classic/util/LogbackMDCAdapter.remove (1 samples, 5.00%)</title><rect x="482.0" y="547.0" width="59.0" height="15" fill="#67f867" rx="2" ry="2"/>
<text x="485.0" y="558.0">ch/qos..</text>
</g>
<g>
<title>java/lang/ThreadLocal.get (1 samples, 5.00%)</title><rect x="482.0" y="531.0" width="59.0" height="15" fill="#59ea59" rx="2" ry="2"/>
<text x="485.0" y="542.0">java/l..</text>
</g>
<g>
<title>java/lang/ThreadLocal$ThreadLocalMap.access$000 (1 samples, 5.00%)</title><rect x="482.0" y="515.0" width="59.0" height="15" fill="#5dee5d" rx="2" ry="2"/>
<text x="485.0" y="526.0">java/l..</text>
</g>
<g>
<title>java/lang/ThreadLocal$ThreadLocalMap.getEntry (1 samples, 5.00%)</title><rect x="482.0" y="499.0" width="59.0" height="15" fill="#56e756" rx="2" ry="2"/>
<text x="485.0" y="510.0">java/l..</text>
</g>
<g>
<title>java/lang/ThreadLocal$ThreadLocalMap.getEntryAfterMiss (1 samples, 5.00%)</title><rect x="482.0" y="483.0" width="59.0" height="15" fill="#55e655" rx="2" ry="2"/>
<text x="485.0" y="494.0">java/l..</text>
</g>
<g>
<title>com/linecorp/decaton/processor/runtime/ProcessingContextImpl.loggingContext (1 samples, 5.00%)</title><rect x="541.0" y="579.0" width="59.0" height="15" fill="#58e958" rx="2" ry="2"/>
<text x="544.0" y="590.0">com/li..</text>
</g>
<g>
<title>com/linecorp/decaton/processor/runtime/LoggingContext.&lt;init&gt; (1 samples, 5.00%)</title><rect x="541.0" y="563.0" width="59.0" height="15" fill="#60f160" rx="2" ry="2"/>
<text x="544.0" y="574.0">com/li..</text>
</g>
<g>
<title>org/slf4j/MDC.put (1 samples, 5.00%)</title><rect x="541.0" y="547.0" width="59.0" height="15" fill="#5ced5c" rx="2" ry="2"/>
<text x="544.0" y="558.0">org/sl..</text>
</g>
<g>
<title>ch/qos/logback/classic/util/LogbackMDCAdapter.put (1 samples, 5.00%)</title><rect x="541.0" y="531.0" width="59.0" height="15" fill="#55e655" rx="2" ry="2"/>
<text x="544.0" y="542.0">ch/qos..</text>
</g>
<g>
<title>ch/qos/logback/classic/util/LogbackMDCAdapter.getAndSetLastOperation (1 samples, 5.00%)</title><rect x="541.0" y="515.0" width="59.0" height="15" fill="#6bfc6b" rx="2" ry="2"/>
<text x="544.0" y="526.0">ch/qos..</text>
</g>
<g>
<title>java/lang/ThreadLocal.set (1 samples, 5.00%)</title><rect x="541.0" y="499.0" width="59.0" height="15" fill="#53e453" rx="2" ry="2"/>
<text x="544.0" y="510.0">java/l..</text>
</g>
<g>
<title>java/lang/ThreadLocal$ThreadLocalMap.access$100 (1 samples, 5.00%)</title><rect x="541.0" y="483.0" width="59.0" height="15" fill="#53e453" rx="2" ry="2"/>
<text x="544.0" y="494.0">java/l..</text>
</g>
<g>
<title>java/lang/ThreadLocal$ThreadLocalMap.set (1 samples, 5.00%)</title><rect x="541.0" y="467.0" width="59.0" height="15" fill="#5eef5e" rx="2" ry="2"/>
<text x="544.0" y="478.0">java/l..</text>
</g>
<g>
<title>com/linecorp/decaton/processor/runtime/ProcessingContextImpl.push (4 samples, 20.00%)</title><rect x="600.0" y="579.0" width="236.0" height="15" fill="#66f766" rx="2" ry="2"/>
<text x="603.0" y="590.0">com/linecorp/decaton/processor/..</text>
</g>
<g>
<title>com/linecorp/decaton/processor/runtime/ProcessingContextImpl.pushDownStream (4 samples, 20.00%)</title><rect x="600.0" y="563.0" width="236.0" height="15" fill="#6dfe6d" rx="2" ry="2"/>
<text x="603.0" y="574.0">com/linecorp/decaton/processor/..</text>
</g>
<g>
<title>com/linecorp/decaton/benchmark/DecatonRunner$$Lambda$203/1954643718.process (4 samples, 20.00%)</title><rect x="600.0" y="547.0" width="236.0" height="15" fill="#6cfd6c" rx="2" ry="2"/>
<text x="603.0" y="558.0">com/linecorp/decaton/benchmark/..</text>
</g>
<g>
<title>com/linecorp/decaton/benchmark/DecatonRunner.lambda$null$5 (4 samples, 20.00%)</title><rect x="600.0" y="531.0" width="236.0" height="15" fill="#64f564" rx="2" ry="2"/>
<text x="603.0" y="542.0">com/linecorp/decaton/benchmark/..</text>
</g>
<g>
<title>com/linecorp/decaton/benchmark/Recording.process (4 samples, 20.00%)</title><rect x="600.0" y="515.0" width="236.0" height="15" fill="#5bec5b" rx="2" ry="2"/>
<text x="603.0" y="526.0">com/linecorp/decaton/benchmark/..</text>
</g>
<g>
<title>ch/qos/logback/classic/Logger.isTraceEnabled (1 samples, 5.00%)</title><rect x="600.0" y="499.0" width="59.0" height="15" fill="#66f766" rx="2" ry="2"/>
<text x="603.0" y="510.0">ch/qos..</text>
</g>
<g>
<title>com/linecorp/decaton/benchmark/Recording$ChildRecording.process (3 samples, 15.00%)</title><rect x="659.0" y="499.0" width="177.0" height="15" fill="#5bec5b" rx="2" ry="2"/>
<text x="662.0" y="510.0">com/linecorp/decaton/be..</text>
</g>
<g>
<title>java/lang/Thread.sleep (3 samples, 15.00%)</title><rect x="659.0" y="483.0" width="177.0" height="15" fill="#58e958" rx="2" ry="2"/>
<text x="662.0" y="494.0">java/lang/Thread.sleep</text>
</g>
<g>
<title>JVM_Sleep (3 samples, 15.00%)</title><rect x="659.0" y="467.0" width="177.0" height="15" fill="#e76363" rx="2" ry="2"/>
<text x="662.0" y="478.0">JVM_Sleep</text>
</g>
<g>
<title>os::sleep(Thread*, long, bool) (3 samples, 15.00%)</title><rect x="659.0" y="451.0" width="177.0" height="15" fill="#d9d941" rx="2" ry="2"/>
<text x="662.0" y="462.0">os::sleep(Thread*, long..</text>
</g>
<g>
<title>__pthread_cond_timedwait (2 samples, 10.00%)</title><rect x="718.0" y="435.0" width="118.0" height="15" fill="#e86363" rx="2" ry="2"/>
<text x="721.0" y="446.0">__pthread_cond..</text>
</g>
<g>
<title>system_call_fastpath (2 samples, 10.00%)</title><rect x="718.0" y="419.0" width="118.0" height="15" fill="#e58100" rx="2" ry="2"/>
<text x="721.0" y="430.0">system_call_fa..</text>
</g>
<g>
<title>__check_object_size (1 samples, 5.00%)</title><rect x="777.0" y="403.0" width="59.0" height="15" fill="#f69200" rx="2" ry="2"/>
<text x="780.0" y="414.0">__chec..</text>
</g>
<g>
<title>org/apache/kafka/clients/consumer/internals/AbstractCoordinator$HeartbeatThread.run (1 samples, 5.00%)</title><rect x="836.0" y="707.0" width="59.0" height="15" fill="#53e453" rx="2" ry="2"/>
<text x="839.0" y="718.0">org/ap..</text>
</g>
<g>
<title>org/apache/kafka/clients/consumer/internals/AbstractCoordinator.sendHeartbeatRequest (1 samples, 5.00%)</title><rect x="836.0" y="691.0" width="59.0" height="15" fill="#67f867" rx="2" ry="2"/>
<text x="839.0" y="702.0">org/ap..</text>
</g>
<g>
<title>org/apache/kafka/common/message/HeartbeatRequestData.&lt;init&gt; (1 samples, 5.00%)</title><rect x="836.0" y="675.0" width="59.0" height="15" fill="#54e554" rx="2" ry="2"/>
<text x="839.0" y="686.0">org/ap..</text>
</g>
<g>
<title>start_thread (5 samples, 25.00%)</title><rect x="895.0" y="707.0" width="295.0" height="15" fill="#f77777" rx="2" ry="2"/>
<text x="898.0" y="718.0">start_thread</text>
</g>
<g>
<title>java_start(Thread*) (5 samples, 25.00%)</title><rect x="895.0" y="691.0" width="295.0" height="15" fill="#e35c5c" rx="2" ry="2"/>
<text x="898.0" y="702.0">java_start(Thread*)</text>
</g>
<g>
<title>ConcurrentG1RefineThread::run() (1 samples, 5.00%)</title><rect x="895.0" y="675.0" width="59.0" height="15" fill="#e4e445" rx="2" ry="2"/>
<text x="898.0" y="686.0">Concur..</text>
</g>
<g>
<title>ConcurrentG1RefineThread::run_young_rs_sampling() (1 samples, 5.00%)</title><rect x="895.0" y="659.0" width="59.0" height="15" fill="#c9c93c" rx="2" ry="2"/>
<text x="898.0" y="670.0">Concur..</text>
</g>
<g>
<title>ConcurrentG1RefineThread::sample_young_list_rs_lengths() (1 samples, 5.00%)</title><rect x="895.0" y="643.0" width="59.0" height="15" fill="#d7d741" rx="2" ry="2"/>
<text x="898.0" y="654.0">Concur..</text>
</g>
<g>
<title>YoungList::rs_length_sampling_next() (1 samples, 5.00%)</title><rect x="895.0" y="627.0" width="59.0" height="15" fill="#cdcd3d" rx="2" ry="2"/>
<text x="898.0" y="638.0">YoungL..</text>
</g>
<g>
<title>G1CollectorPolicy::update_incremental_cset_info(HeapRegion*, unsigned long) (1 samples, 5.00%)</title><rect x="895.0" y="611.0" width="59.0" height="15" fill="#cfcf3e" rx="2" ry="2"/>
<text x="898.0" y="622.0">G1Coll..</text>
</g>
<g>
<title>G1CollectorPolicy::predict_region_elapsed_time_ms(HeapRegion*, bool) (1 samples, 5.00%)</title><rect x="895.0" y="595.0" width="59.0" height="15" fill="#dfdf43" rx="2" ry="2"/>
<text x="898.0" y="606.0">G1Coll..</text>
</g>
<g>
<title>G1CollectorPolicy::predict_bytes_to_copy(HeapRegion*) (1 samples, 5.00%)</title><rect x="895.0" y="579.0" width="59.0" height="15" fill="#dddd43" rx="2" ry="2"/>
<text x="898.0" y="590.0">G1Coll..</text>
</g>
<g>
<title>JavaThread::run() (4 samples, 20.00%)</title><rect x="954.0" y="675.0" width="236.0" height="15" fill="#dbdb42" rx="2" ry="2"/>
<text x="957.0" y="686.0">JavaThread::run()</text>
</g>
<g>
<title>JavaThread::thread_main_inner() (4 samples, 20.00%)</title><rect x="954.0" y="659.0" width="236.0" height="15" fill="#e5e545" rx="2" ry="2"/>
<text x="957.0" y="670.0">JavaThread::thread_main_inner()</text>
</g>
<g>
<title>CompileBroker::compiler_thread_loop() (4 samples, 20.00%)</title><rect x="954.0" y="643.0" width="236.0" height="15" fill="#dbdb42" rx="2" ry="2"/>
<text x="957.0" y="654.0">CompileBroker::compiler_thread_..</text>
</g>
<g>
<title>CompileBroker::invoke_compiler_on_method(CompileTask*) (4 samples, 20.00%)</title><rect x="954.0" y="627.0" width="236.0" height="15" fill="#dede43" rx="2" ry="2"/>
<text x="957.0" y="638.0">CompileBroker::invoke_compiler_..</text>
</g>
<g>
<title>C2Compiler::compile_method(ciEnv*, ciMethod*, int) (4 samples, 20.00%)</title><rect x="954.0" y="611.0" width="236.0" height="15" fill="#caca3c" rx="2" ry="2"/>
<text x="957.0" y="622.0">C2Compiler::compile_method(ciEn..</text>
</g>
<g>
<title>Compile::Compile(ciEnv*, C2Compiler*, ciMethod*, int, bool, bool, bool) (4 samples, 20.00%)</title><rect x="954.0" y="595.0" width="236.0" height="15" fill="#cccc3d" rx="2" ry="2"/>
<text x="957.0" y="606.0">Compile::Compile(ciEnv*, C2Comp..</text>
</g>
<g>
<title>Compile::Code_Gen() (3 samples, 15.00%)</title><rect x="954.0" y="579.0" width="177.0" height="15" fill="#d7d741" rx="2" ry="2"/>
<text x="957.0" y="590.0">Compile::Code_Gen()</text>
</g>
<g>
<title>PhaseChaitin::Register_Allocate() (3 samples, 15.00%)</title><rect x="954.0" y="563.0" width="177.0" height="15" fill="#caca3c" rx="2" ry="2"/>
<text x="957.0" y="574.0">PhaseChaitin::Register_..</text>
</g>
<g>
<title>PhaseChaitin::gather_lrg_masks(bool) (1 samples, 5.00%)</title><rect x="954.0" y="547.0" width="59.0" height="15" fill="#caca3c" rx="2" ry="2"/>
<text x="957.0" y="558.0">PhaseC..</text>
</g>
<g>
<title>RegMask::Size() const (1 samples, 5.00%)</title><rect x="954.0" y="531.0" width="59.0" height="15" fill="#cece3e" rx="2" ry="2"/>
<text x="957.0" y="542.0">RegMas..</text>
</g>
<g>
<title>PhaseIFG::Compute_Effective_Degree() (1 samples, 5.00%)</title><rect x="1013.0" y="547.0" width="59.0" height="15" fill="#d5d540" rx="2" ry="2"/>
<text x="1016.0" y="558.0">PhaseI..</text>
</g>
<g>
<title>PhaseLive::compute(unsigned int) (1 samples, 5.00%)</title><rect x="1072.0" y="547.0" width="59.0" height="15" fill="#e0e044" rx="2" ry="2"/>
<text x="1075.0" y="558.0">PhaseL..</text>
</g>
<g>
<title>PhaseLive::add_liveout(Block*, IndexSet*, VectorSet&amp;) (1 samples, 5.00%)</title><rect x="1072.0" y="531.0" width="59.0" height="15" fill="#d9d941" rx="2" ry="2"/>
<text x="1075.0" y="542.0">PhaseL..</text>
</g>
<g>
<title>Compile::Optimize() (1 samples, 5.00%)</title><rect x="1131.0" y="579.0" width="59.0" height="15" fill="#dede43" rx="2" ry="2"/>
<text x="1134.0" y="590.0">Compil..</text>
</g>
<g>
<title>PhaseIdealLoop::build_and_optimize(bool, bool) (1 samples, 5.00%)</title><rect x="1131.0" y="563.0" width="59.0" height="15" fill="#c9c93c" rx="2" ry="2"/>
<text x="1134.0" y="574.0">PhaseI..</text>
</g>
<g>
<title>PhaseIdealLoop::build_loop_late(VectorSet&amp;, Node_List&amp;, Node_Stack&amp;) (1 samples, 5.00%)</title><rect x="1131.0" y="547.0" width="59.0" height="15" fill="#cccc3d" rx="2" ry="2"/>
<text x="1134.0" y="558.0">PhaseI..</text>
</g>
<g>
<title>IfNode::Opcode() const (1 samples, 5.00%)</title><rect x="1131.0" y="531.0" width="59.0" height="15" fill="#e5e545" rx="2" ry="2"/>
<text x="1134.0" y="542.0">IfNode..</text>
</g>
</g>
</svg>
